# xmcd
#
# Track frame offsets: 
#        150
#        12361
#        25701
#        41909
#        55005
#        71152
#        82629
#        98322
#        113478
#        131356
#        142973
#        153599
#        165112
#        179413
#        191100
#        207120
#        222655
#        234818
#        256566
#        266760
#        298508
#
# Disc length: 4440 seconds
#
# Revision: 1
# Processed by: cddbd v1.5.2PL0 Copyright (c) Steve Scherf et al.
# Submitted via: ExactAudioCopyFreeDBPlugin 1.0
#
DISCID=10115615
DTITLE=Various Artist - The Original Country Album
DYEAR=2005
DGENRE=Country
TTITLE0=Glen Campbell - By the time I get to Phoenix
TTITLE1=Dr Hook - When you're in love with a beautiful woman
TTITLE2=Kenny Rogers - Lucille
TTITLE3=Crystal Gayle - Talking in your sleep
TTITLE4=Billie Jo Spears - Blanket on the ground
TTITLE5=Wanda Jackson - Cold, cold heart
TTITLE6=Suzy Boggus - Somewhere between
TTITLE7=Tanya Tucker - If it don't come easy
TTITLE8=Dottie West - Hey, Mr. Dream Maker
TTITLE9=Merle Haggard - Workin' man blues
TTITLE10=Slim Whitman - The most beautiful girl
TTITLE11=George Jones - She thinks I still care
TTITLE12=Eddie Rabbitt - I love a rainy night
TTITLE13=Lacy J Dalton - Love hurts
TTITLE14=Joe South - Games people play
TTITLE15=Juice Newton - It's a heartache
TTITLE16=Faron Young - I fall to pieces
TTITLE17=Deana Carter - Strawberry wine
TTITLE18=Tennesse Ernie Ford - King of the road
TTITLE19=Asleep At The Wheel - Lay down Sally
TTITLE20=xxx
EXTD=
EXTT0=
EXTT1=
EXTT2=
EXTT3=
EXTT4=
EXTT5=
EXTT6=
EXTT7=
EXTT8=
EXTT9=
EXTT10=
EXTT11=
EXTT12=
EXTT13=
EXTT14=
EXTT15=
EXTT16=
EXTT17=
EXTT18=
EXTT19=
EXTT20=
PLAYORDER=
